PathFileType	4	(X/Y/Z)	C:\Users\dbl\Desktop\20210112(1)\20210112\bx_y_0_1802.trc
DataRate	CameraRate	NumFrames	NumMarkers	Units	OrigDataRate	OrigDataStartFrame	OrigNumFrames
50.00	50.00	       5	43	mm	50.00	282	       375
Frame#	Time	Top.Head			R.Acromium			L.Acromium			Sternum			R.ASIS			L.ASIS			V.Sacral			R.Thigh.Upper			R.Thigh.Front			R.Thigh.Rear			R.Knee.Lat			R.Knee.Med			R.Shank.Upper			R.Shank.Front			R.Shank.Rear			R.Ankle.Lat			R.Midfoot.Lat			R.Toe.Lat			R.Toe.Tip			R.Toe.Med			R.Ankle.Med			R.Midfoot.Sup			R.Heel			L.Thigh.Upper			L.Thigh.Front			L.Thigh.Rear			L.Knee.Lat			L.Knee.Med			L.Shank.Upper			L.Shank.Front			L.Shank.Rear			L.Ankle.Lat			L.Midfoot.Lat			L.Toe.Lat			L.Toe.Tip			L.Toe.Med			L.Ankle.Med			L.Midfoot.Sup			L.Heel			origin1 front left			origin2 front right			origin 3 back right			origin 4 back leftt			
		X1	Y1	Z1	X2	Y2	Z2	X3	Y3	Z3	X4	Y4	Z4	X5	Y5	Z5	X6	Y6	Z6	X7	Y7	Z7	X8	Y8	Z8	X9	Y9	Z9	X10	Y10	Z10	X11	Y11	Z11	X12	Y12	Z12	X13	Y13	Z13	X14	Y14	Z14	X15	Y15	Z15	X16	Y16	Z16	X17	Y17	Z17	X18	Y18	Z18	X19	Y19	Z19	X20	Y20	Z20	X21	Y21	Z21	X22	Y22	Z22	X23	Y23	Z23	X24	Y24	Z24	X25	Y25	Z25	X26	Y26	Z26	X27	Y27	Z27	X28	Y28	Z28	X29	Y29	Z29	X30	Y30	Z30	X31	Y31	Z31	X32	Y32	Z32	X33	Y33	Z33	X34	Y34	Z34	X35	Y35	Z35	X36	Y36	Z36	X37	Y37	Z37	X38	Y38	Z38	X39	Y39	Z39	X40	Y40	Z40	X41	Y41	Z41	X42	Y42	Z42	X43	Y43	Z43	

282	5.620	-694.12329	118.86464	1851.24048	-675.43884	-70.79674	1551.74756	-696.38770	292.48920	1530.83447	-607.67908	103.62308	1433.56519	-595.00342	-17.46347	1056.05945	-586.37073	210.62073	1074.14893	-792.43628	87.90580	1055.97339	-646.47504	-76.77637	862.18933	-584.75232	-11.34933	806.52588	-694.08575	-55.87490	721.34918	-699.34332	-32.89352	617.00861	-687.14172	77.11597	581.79803	-714.57660	-28.17037	569.78967	-666.49579	14.37434	521.67438	-765.30164	-34.69707	491.78226	-769.30273	-5.00478	208.11742	-667.06512	-68.47975	161.13853	-625.44800	-80.02108	157.75720	-562.84436	-42.05730	162.90921	-604.01532	17.13829	169.00243	-715.74774	75.86829	217.66945	-675.18762	54.23103	160.42572	-793.71301	57.55009	175.86423	-637.26697	273.23441	880.69934	-582.15356	208.37091	818.30676	-688.36823	265.35217	753.59106	-718.92456	243.26770	643.97284	-684.63037	137.08888	579.44189	-723.45160	238.98320	580.02930	-671.14417	198.90169	535.29932	-766.38232	248.27689	506.18332	-770.76678	219.82275	205.51169	-666.81293	297.96957	161.03145	-629.31134	305.92230	163.24310	-560.20959	261.84296	165.11189	-594.61615	222.34103	173.49237	-711.04706	150.59343	215.86707	-675.06830	171.44955	156.35857	-795.62482	170.67891	184.78067	-528.01752	304.20898	146.53406	-517.48840	-72.69180	143.10054	-875.84808	-78.73134	141.43413	-882.51019	296.10522	144.60751	
283	5.640	-694.73309	119.19688	1851.28870	-675.66766	-70.67388	1551.71252	-697.33459	292.41983	1530.66650	-608.24548	103.74439	1433.54858	-595.30322	-17.23861	1055.95508	-586.61420	210.69278	1074.16650	-792.65808	87.86388	1056.08142	-646.74731	-76.78750	862.16882	-585.08514	-11.15536	806.57684	-694.25122	-55.72560	721.39362	-699.61658	-32.98843	617.10327	-687.53461	77.08952	581.91797	-715.00812	-28.25857	569.81500	-666.88800	14.43267	521.64386	-765.47913	-34.62917	491.68567	-769.33685	-5.06538	208.01776	-667.06030	-68.46883	161.14696	-625.41376	-79.98911	157.76332	-562.84973	-42.04320	162.94153	-604.03125	17.14421	169.00508	-715.88538	75.89626	217.65700	-675.21082	54.22629	160.43730	-793.77655	57.51630	175.83626	-637.73694	273.31732	880.67615	-582.60724	208.59924	818.24921	-688.82379	265.42480	753.56189	-719.43262	243.36308	643.98431	-684.81525	137.12920	579.50574	-723.90717	239.12350	580.04718	-671.62903	199.05185	535.33563	-766.86694	248.24171	506.14923	-770.84595	219.88924	205.54463	-666.80731	297.98459	161.04996	-629.39740	305.97836	163.21220	-560.26147	261.84091	165.14493	-594.62482	222.35245	173.48647	-711.08252	150.65750	215.85422	-675.12067	171.51187	156.38803	-795.64044	170.68301	184.72569	-528.04028	304.21014	146.52444	-517.50037	-72.73511	143.09000	-875.77332	-78.77345	141.46100	-882.50800	296.11295	144.61415	
284	5.660	-695.20355	119.43103	1851.33630	-675.90704	-70.55692	1551.65271	-698.15417	292.35544	1530.52209	-608.69342	103.85178	1433.51331	-595.59381	-17.10809	1055.91968	-586.94537	210.79987	1074.14685	-792.94159	87.84741	1056.12695	-647.03119	-76.76487	862.14423	-585.49878	-10.93252	806.61078	-694.52417	-55.61453	721.41388	-699.99237	-33.08985	617.17261	-687.92786	77.08157	581.99927	-715.47626	-28.26925	569.85126	-667.25195	14.44363	521.71436	-765.74170	-34.56099	491.62018	-769.39233	-5.14032	207.89458	-667.07526	-68.46231	161.14105	-625.33728	-79.96402	157.80460	-562.85803	-42.02595	162.97699	-604.04266	17.14314	168.99498	-715.97998	75.91503	217.62175	-675.23425	54.22221	160.44791	-793.79486	57.49297	175.80507	-638.08710	273.43689	880.66400	-583.02051	208.74138	818.20758	-689.12762	265.49908	753.44855	-719.74023	243.50787	644.03284	-685.02289	137.23633	579.56610	-724.33813	239.26537	580.06757	-672.06750	199.19687	535.35590	-767.22168	248.28098	506.08490	-770.91412	219.98889	205.57362	-666.80316	297.99768	161.06389	-629.45703	306.01492	163.16994	-560.31055	261.82791	165.17305	-594.63806	222.37383	173.48509	-711.12042	150.70357	215.84166	-675.19641	171.57391	156.40947	-795.66803	170.68373	184.69116	-528.05597	304.21411	146.50867	-517.51160	-72.77551	143.07297	-875.74188	-78.78130	141.45636	-882.49188	296.08017	144.59708	
285	5.680	-695.58594	119.52626	1851.35828	-676.10797	-70.46094	1551.56921	-698.81024	292.34714	1530.43164	-609.03107	103.94257	1433.44849	-595.87360	-17.04528	1055.90076	-587.39362	210.93408	1074.11658	-793.27087	87.81424	1056.11279	-647.31195	-76.73025	862.14429	-585.96832	-10.68757	806.60797	-694.90320	-55.63314	721.45197	-700.45044	-33.14711	617.18915	-688.41638	77.09766	582.01996	-715.90106	-28.16541	569.82397	-667.57983	14.41606	521.86719	-766.07452	-34.55609	491.59903	-769.47058	-5.20386	207.77020	-667.10730	-68.46028	161.12807	-625.26611	-79.93537	157.86243	-562.88617	-42.00256	163.01553	-604.05334	17.14442	168.98122	-716.04779	75.92123	217.60869	-675.25348	54.21872	160.45792	-793.78790	57.47359	175.75812	-638.36322	273.55832	880.65155	-583.37994	208.82845	818.19501	-689.37256	265.61569	753.31915	-719.95886	243.69022	644.08459	-685.33289	137.39343	579.58142	-724.75751	239.36617	580.06921	-672.43506	199.31453	535.35474	-767.49146	248.39311	505.99713	-770.97937	220.09285	205.55849	-666.80609	298.00192	161.06360	-629.48889	306.04498	163.14810	-560.35248	261.82147	165.20709	-594.65527	222.40320	173.48123	-711.18030	150.76332	215.85802	-675.23816	171.60992	156.44766	-795.69781	170.70184	184.66261	-528.06757	304.24103	146.48828	-517.51361	-72.79289	143.05220	-875.78033	-78.75766	141.42569	-882.46857	296.02872	144.56755	
286	5.700	-695.89136	119.48214	1851.35291	-676.26337	-70.41801	1551.45813	-699.33307	292.36786	1530.39209	-609.36383	104.01880	1433.34827	-596.16534	-16.98276	1055.85193	-587.90112	211.05298	1074.10266	-793.63043	87.77066	1056.06787	-647.62360	-76.69962	862.19482	-586.43469	-10.46693	806.58527	-695.31323	-55.76863	721.54218	-700.93457	-33.12766	617.16315	-688.98578	77.13631	581.99847	-716.24744	-27.98607	569.69379	-667.88147	14.39518	522.03534	-766.45306	-34.63699	491.59726	-769.55328	-5.23104	207.67107	-667.13293	-68.45104	161.12274	-625.23663	-79.88991	157.91106	-562.92889	-41.96658	163.06157	-604.06769	17.16282	168.97850	-716.10681	75.91402	217.63159	-675.26727	54.22482	160.46532	-793.81024	57.46599	175.70743	-638.63922	273.66016	880.64624	-583.70007	208.89467	818.19507	-689.64111	265.81879	753.25458	-720.22034	243.87668	644.10144	-685.76044	137.55794	579.55164	-725.15784	239.39859	580.01086	-672.74310	199.40164	535.33929	-767.73041	248.53519	505.90408	-771.04059	220.18111	205.49495	-666.81506	297.99200	161.05180	-629.51031	306.06229	163.16209	-560.38275	261.82489	165.25256	-594.66425	222.42102	173.47168	-711.25208	150.84465	215.91541	-675.23059	171.61076	156.50121	-795.71796	170.75365	184.63441	-528.07385	304.27380	146.47372	-517.51245	-72.78078	143.02257	-875.86426	-78.73466	141.39374	-882.45831	295.99930	144.54701	
